<?xml version="1.0" encoding="UTF-8"?>
<svg width="200" height="200" viewBox="0 0 200 200" fill="none" xmlns="http://www.w3.org/2000/svg">
  <circle cx="100" cy="100" r="90" stroke="#007AFF" stroke-width="8" fill="white"/>
  <path d="M100 50C83.3333 50 70 63.3333 70 80C70 96.6667 83.3333 110 100 110C116.667 110 130 96.6667 130 80C130 63.3333 116.667 50 100 50ZM100 100C88.9167 100 80 91.0833 80 80C80 68.9167 88.9167 60 100 60C111.083 60 120 68.9167 120 80C120 91.0833 111.083 100 100 100Z" fill="#007AFF"/>
  <path d="M100 120C76.6667 120 60 136.667 60 160H140C140 136.667 123.333 120 100 120Z" fill="#007AFF"/>
</svg> 